<?xml version="1.0" encoding="utf-8"?>
<!-- Generator: Adobe Illustrator 16.0.0, SVG Export Plug-In . SVG Version: 6.00 Build 0)  -->
<!DOCTYPE svg PUBLIC "-//W3C//DTD SVG 1.1//EN" "http://www.w3.org/Graphics/SVG/1.1/DTD/svg11.dtd">
<svg version="1.1" id="Capa_1" xmlns="http://www.w3.org/2000/svg" xmlns:xlink="http://www.w3.org/1999/xlink" x="0px" y="0px"
	 width="841.89px" height="595.28px" viewBox="0 0 841.89 595.28" enable-background="new 0 0 841.89 595.28" xml:space="preserve">
<g>
	<g>
		<linearGradient id="SVGID_1_" gradientUnits="userSpaceOnUse" x1="309.6392" y1="330.4795" x2="353.8787" y2="253.8544">
			<stop  offset="0" style="stop-color:#683F91"/>
			<stop  offset="1" style="stop-color:#26368C"/>
		</linearGradient>
		<path fill="url(#SVGID_1_)" d="M363.351,325.826c17.836-17.838,17.836-46.86,0-64.698c-17.837-17.836-46.86-17.836-64.697,0
			c-10.715,10.715-14.991,25.467-12.832,39.406l13.898-13.898c1.258-5.8,4.127-11.316,8.626-15.815
			c12.492-12.492,32.818-12.492,45.311,0c12.492,12.493,12.492,32.818,0,45.311c-4.571,4.571-10.193,7.462-16.095,8.688
			l-13.807,13.809C337.749,340.855,352.586,336.59,363.351,325.826z"/>
	</g>
	<path fill="#683F91" d="M334.077,312.982l0-22.58l-22.58,0l7.814,7.814l-45.787,45.787c-1.92,1.921-1.92,5.032,0,6.952
		c1.919,1.92,5.032,1.92,6.953,0l45.787-45.787L334.077,312.982z"/>
	<path fill="#683F91" d="M298.712,310.812c-0.68-0.679-1.781-0.679-2.46,0l-17.124,17.123c-0.68,0.681-0.68,1.782,0,2.462
		c0.68,0.679,1.781,0.679,2.461-0.001l17.124-17.124C299.391,312.594,299.391,311.491,298.712,310.812z"/>
	<circle fill="#683F91" cx="276.11" cy="333.414" r="1.74"/>
	<path fill="#683F91" d="M312.785,296.739c-0.679-0.679-1.781-0.679-2.46,0l-5.429,5.429l-4.51,4.51c-0.68,0.68-0.68,1.781,0,2.461
		c0.679,0.68,1.78,0.68,2.46,0l4.51-4.51l5.429-5.43C313.464,298.52,313.464,297.418,312.785,296.739z"/>
	<path fill="#683F91" d="M318.058,320.882c-0.68-0.681-1.781-0.681-2.46-0.001l-17.124,17.123c-0.68,0.68-0.68,1.781,0,2.461
		s1.781,0.68,2.461,0l17.123-17.123C318.737,322.662,318.737,321.561,318.058,320.882z"/>
	<g>
		<path d="M402.264,280.064c2.25-0.383,5.41-0.67,9.862-0.67c4.501,0,7.756,0.861,9.911,2.633c2.059,1.58,3.398,4.261,3.398,7.42
			c0,3.208-1.006,5.889-2.921,7.66c-2.489,2.298-6.224,3.4-10.532,3.4c-0.957,0-1.818-0.049-2.489-0.192v11.586h-7.229V280.064z
			 M409.493,294.714c0.622,0.144,1.389,0.191,2.442,0.191c3.877,0,6.271-1.963,6.271-5.219c0-2.968-2.012-4.739-5.697-4.739
			c-1.484,0-2.49,0.096-3.017,0.239V294.714z"/>
		<path d="M432.063,279.634h4.214v28.772h13.787v3.495h-18.001V279.634z"/>
		<path d="M463.323,312.428c-6.224,0-11.106-4.596-11.106-11.92c0-7.756,5.121-12.304,11.489-12.304
			c6.654,0,11.155,4.835,11.155,11.873c0,8.617-5.985,12.352-11.49,12.352H463.323z M463.467,309.268
			c4.021,0,7.037-3.781,7.037-9.048c0-3.926-1.963-8.857-6.941-8.857c-4.932,0-7.086,4.596-7.086,9c0,5.075,2.873,8.904,6.942,8.904
			H463.467z"/>
		<path d="M500.041,308.502c0,5.361-1.101,8.57-3.304,10.629c-2.298,2.059-5.554,2.776-8.474,2.776c-2.777,0-5.841-0.67-7.708-1.915
			l1.054-3.256c1.531,1.006,3.925,1.867,6.798,1.867c4.309,0,7.469-2.25,7.469-8.139v-2.537h-0.097
			c-1.244,2.154-3.782,3.878-7.372,3.878c-5.745,0-9.862-4.884-9.862-11.347c0-7.851,5.123-12.255,10.485-12.255
			c4.021,0,6.175,2.058,7.229,3.973h0.096l0.144-3.447h3.734c-0.145,1.628-0.191,3.495-0.191,6.32V308.502z M495.827,297.826
			c0-0.67-0.048-1.292-0.239-1.867c-0.766-2.489-2.776-4.5-5.888-4.5c-4.021,0-6.895,3.399-6.895,8.809c0,4.5,2.346,8.33,6.846,8.33
			c2.634,0,4.979-1.627,5.842-4.355c0.239-0.672,0.334-1.485,0.334-2.251V297.826z"/>
		<path d="M526.8,308.502c0,5.361-1.102,8.57-3.304,10.629c-2.299,2.059-5.554,2.776-8.474,2.776c-2.777,0-5.842-0.67-7.708-1.915
			l1.053-3.256c1.531,1.006,3.926,1.867,6.798,1.867c4.31,0,7.469-2.25,7.469-8.139v-2.537h-0.096
			c-1.244,2.154-3.782,3.878-7.373,3.878c-5.744,0-9.861-4.884-9.861-11.347c0-7.851,5.122-12.255,10.484-12.255
			c4.021,0,6.176,2.058,7.229,3.973h0.097l0.143-3.447h3.735c-0.145,1.628-0.191,3.495-0.191,6.32V308.502z M522.586,297.826
			c0-0.67-0.048-1.292-0.239-1.867c-0.766-2.489-2.776-4.5-5.889-4.5c-4.021,0-6.894,3.399-6.894,8.809c0,4.5,2.346,8.33,6.846,8.33
			c2.634,0,4.979-1.627,5.841-4.355c0.24-0.672,0.335-1.485,0.335-2.251V297.826z"/>
		<path d="M536.132,301.033c0.097,5.697,3.688,8.043,7.9,8.043c3.016,0,4.883-0.525,6.415-1.148l0.766,2.969
			c-1.483,0.67-4.069,1.484-7.755,1.484c-7.086,0-11.395-4.74-11.395-11.682c0-7.039,4.165-12.543,10.915-12.543
			c7.564,0,9.527,6.654,9.527,10.915c0,0.862-0.048,1.533-0.144,2.012L536.132,301.033z M548.437,298.018
			c0.048-2.633-1.102-6.846-5.793-6.846c-4.309,0-6.128,3.926-6.463,6.846H548.437z"/>
		<path d="M557.769,295.959c0-2.729-0.047-5.075-0.191-7.229h3.687l0.191,4.548h0.144c1.053-3.112,3.639-5.074,6.463-5.074
			c0.431,0,0.767,0.047,1.149,0.143v3.926c-0.479-0.048-0.91-0.096-1.484-0.096c-2.968,0-5.075,2.25-5.649,5.362
			c-0.095,0.623-0.144,1.293-0.144,2.01v12.353h-4.212L557.769,295.959z"/>
	</g>
</g>
</svg>
