<svg width="500" height="250" xmlns="http://www.w3.org/2000/svg">
 <defs>
  <linearGradient y2="0.06674" x2="0.750142" y1="0.904626" x1="0.266382" id="SVGID_1_">
   <stop stop-color="#683F91" offset="0"/>
   <stop stop-color="#26368C" offset="1"/>
  </linearGradient>
 </defs>
 <g>
  <title>background</title>
  <rect fill="none" id="canvas_background" height="252" width="502" y="-1" x="-1"/>
 </g>
 <g>
  <title>Layer 1</title>
  <g id="svg_1">
   <g id="svg_2">
    <path id="svg_3" d="m192.703005,150.752999c17.836,-17.838 17.836,-46.86 0,-64.698c-17.837,-17.836 -46.86,-17.836 -64.697,0c-10.715,10.715 -14.991,25.467 -12.832,39.406l13.898,-13.898c1.258,-5.8 4.127,-11.316 8.626,-15.815c12.492,-12.492 32.818,-12.492 45.311,0c12.492,12.493 12.492,32.818 0,45.311c-4.571,4.571 -10.193,7.462 -16.095,8.688l-13.807,13.809c13.994,2.226 28.831,-2.039 39.596,-12.803z" fill="url(#SVGID_1_)"/>
   </g>
   <path id="svg_4" d="m163.429005,137.908999l0,-22.58l-22.58,0l7.814,7.814l-45.787,45.787c-1.92,1.921 -1.92,5.032 0,6.952c1.919,1.92 5.032,1.92 6.953,0l45.787,-45.787l7.813,7.814z" fill="#683F91"/>
   <path id="svg_5" d="m128.064005,135.738999c-0.68,-0.679 -1.781,-0.679 -2.46,0l-17.124,17.123c-0.68,0.681 -0.68,1.782 0,2.462c0.68,0.679 1.781,0.679 2.461,-0.001l17.124,-17.124c0.678,-0.678 0.678,-1.781 -0.001,-2.46z" fill="#683F91"/>
   <circle id="svg_6" r="1.74" cy="158.340999" cx="105.462005" fill="#683F91"/>
   <path id="svg_7" d="m142.137005,121.665999c-0.679,-0.679 -1.781,-0.679 -2.46,0l-5.429,5.429l-4.51,4.51c-0.68,0.68 -0.68,1.781 0,2.461c0.679,0.68 1.78,0.68 2.46,0l4.51,-4.51l5.429,-5.43c0.679,-0.679 0.679,-1.781 0,-2.46z" fill="#683F91"/>
   <path id="svg_8" d="m147.410005,145.808999c-0.68,-0.681 -1.781,-0.681 -2.46,-0.001l-17.124,17.123c-0.68,0.68 -0.68,1.781 0,2.461s1.781,0.68 2.461,0l17.123,-17.123c0.679,-0.68 0.679,-1.781 0,-2.46z" fill="#683F91"/>
   <g id="svg_9">
    <path id="svg_10" d="m231.616005,104.990999c2.25,-0.383 5.41,-0.67 9.862,-0.67c4.501,0 7.756,0.861 9.911,2.633c2.059,1.58 3.398,4.261 3.398,7.42c0,3.208 -1.006,5.889 -2.921,7.66c-2.489,2.298 -6.224,3.4 -10.532,3.4c-0.957,0 -1.818,-0.049 -2.489,-0.192l0,11.586l-7.229,0l0,-31.837zm7.229,14.65c0.622,0.144 1.389,0.191 2.442,0.191c3.877,0 6.271,-1.963 6.271,-5.219c0,-2.968 -2.012,-4.739 -5.697,-4.739c-1.484,0 -2.49,0.096 -3.017,0.239l0,9.528l0.001,0z"/>
    <path id="svg_11" d="m261.415005,104.560999l4.214,0l0,28.772l13.787,0l0,3.495l-18.001,0l0,-32.267z"/>
    <path id="svg_12" d="m292.675005,137.354999c-6.224,0 -11.106,-4.596 -11.106,-11.92c0,-7.756 5.121,-12.304 11.489,-12.304c6.654,0 11.155,4.835 11.155,11.873c0,8.617 -5.985,12.352 -11.49,12.352l-0.048,0l0,-0.001zm0.144,-3.16c4.021,0 7.037,-3.781 7.037,-9.048c0,-3.926 -1.963,-8.857 -6.941,-8.857c-4.932,0 -7.086,4.596 -7.086,9c0,5.075 2.873,8.904 6.942,8.904l0.048,0l0,0.001z"/>
    <path id="svg_13" d="m329.393005,133.428999c0,5.361 -1.101,8.57 -3.304,10.629c-2.298,2.059 -5.554,2.776 -8.474,2.776c-2.777,0 -5.841,-0.67 -7.708,-1.915l1.054,-3.256c1.531,1.006 3.925,1.867 6.798,1.867c4.309,0 7.469,-2.25 7.469,-8.139l0,-2.537l-0.097,0c-1.244,2.154 -3.782,3.878 -7.372,3.878c-5.745,0 -9.862,-4.884 -9.862,-11.347c0,-7.851 5.123,-12.255 10.485,-12.255c4.021,0 6.175,2.058 7.229,3.973l0.096,0l0.144,-3.447l3.734,0c-0.145,1.628 -0.191,3.495 -0.191,6.32l0,13.453l-0.001,0zm-4.214,-10.676c0,-0.67 -0.048,-1.292 -0.239,-1.867c-0.766,-2.489 -2.776,-4.5 -5.888,-4.5c-4.021,0 -6.895,3.399 -6.895,8.809c0,4.5 2.346,8.33 6.846,8.33c2.634,0 4.979,-1.627 5.842,-4.355c0.239,-0.672 0.334,-1.485 0.334,-2.251l0,-4.166z"/>
    <path id="svg_14" d="m356.152005,133.428999c0,5.361 -1.102,8.57 -3.304,10.629c-2.299,2.059 -5.554,2.776 -8.474,2.776c-2.777,0 -5.842,-0.67 -7.708,-1.915l1.053,-3.256c1.531,1.006 3.926,1.867 6.798,1.867c4.31,0 7.469,-2.25 7.469,-8.139l0,-2.537l-0.096,0c-1.244,2.154 -3.782,3.878 -7.373,3.878c-5.744,0 -9.861,-4.884 -9.861,-11.347c0,-7.851 5.122,-12.255 10.484,-12.255c4.021,0 6.176,2.058 7.229,3.973l0.097,0l0.143,-3.447l3.735,0c-0.145,1.628 -0.191,3.495 -0.191,6.32l0,13.453l-0.001,0zm-4.214,-10.676c0,-0.67 -0.048,-1.292 -0.239,-1.867c-0.766,-2.489 -2.776,-4.5 -5.889,-4.5c-4.021,0 -6.894,3.399 -6.894,8.809c0,4.5 2.346,8.33 6.846,8.33c2.634,0 4.979,-1.627 5.841,-4.355c0.24,-0.672 0.335,-1.485 0.335,-2.251l0,-4.166z"/>
    <path id="svg_15" d="m365.484005,125.959999c0.097,5.697 3.688,8.043 7.9,8.043c3.016,0 4.883,-0.525 6.415,-1.148l0.766,2.969c-1.483,0.67 -4.069,1.484 -7.755,1.484c-7.086,0 -11.395,-4.74 -11.395,-11.682c0,-7.039 4.165,-12.543 10.915,-12.543c7.564,0 9.527,6.654 9.527,10.915c0,0.862 -0.048,1.533 -0.144,2.012l-16.229,-0.05zm12.305,-3.015c0.048,-2.633 -1.102,-6.846 -5.793,-6.846c-4.309,0 -6.128,3.926 -6.463,6.846l12.256,0z"/>
    <path id="svg_16" d="m387.121005,120.885999c0,-2.729 -0.047,-5.075 -0.191,-7.229l3.687,0l0.191,4.548l0.144,0c1.053,-3.112 3.639,-5.074 6.463,-5.074c0.431,0 0.767,0.047 1.149,0.143l0,3.926c-0.479,-0.048 -0.91,-0.096 -1.484,-0.096c-2.968,0 -5.075,2.25 -5.649,5.362c-0.095,0.623 -0.144,1.293 -0.144,2.01l0,12.353l-4.212,0l0.046,-15.943z"/>
   </g>
  </g>
 </g>
</svg>